<svg width="236" height="318" viewBox="0 0 236 318" fill="none" xmlns="http://www.w3.org/2000/svg">
<path d="M202.891 0C204.105 0.440638 205.518 0.587148 206.786 0.870117C208.131 1.16985 209.389 1.54 210.696 1.98535C219.985 5.15593 227.655 11.8484 232.056 20.6211C236.517 29.4881 237.225 39.7764 234.021 49.1709C230.801 58.5929 223.973 66.3531 215.039 70.749C207.293 74.5636 201.405 74.696 193.082 74.6055C191.295 74.5861 187.941 74.7532 186.339 74.5137L186.331 156.984V182.565C186.333 186.773 186.539 191.239 186.253 195.405C185.798 202.068 179.058 201.291 174.51 201.293L163.404 201.29L141.542 201.293C138.648 201.296 133.115 201.598 130.441 201.219C130.434 224.204 131.507 240.851 121.353 262.488C120.153 265.078 118.841 267.614 117.419 270.089C116.414 271.839 112.145 278.053 111.897 279.261C111.472 281.332 111.809 283.866 111.81 285.979L111.799 301.686C111.799 305.659 112.079 309.986 111.371 313.871C110.959 316.137 108.525 316.991 106.963 318H10.9707C8.04726 316.458 6.38446 315.514 6.24021 311.868C6.1483 309.542 6.20446 307.227 6.20896 304.901L6.2158 292.398V251.58L6.21384 211.377L6.20896 198.556C6.20911 195.464 6.14999 192.347 6.39158 189.268C6.7855 184.268 8.07207 179.38 10.1904 174.835C11.8195 171.321 13.898 168.034 16.373 165.056C20.4204 160.222 49.0421 133.059 49.5537 131.191C50.0335 129.439 49.686 119.743 49.6855 117.23C49.6829 103.037 49.5402 88.825 49.7197 74.6338C38.734 74.3635 31.1382 75.7883 20.7676 70.6494C11.8534 66.2357 5.0636 58.4538 1.89939 49.0234C-1.24521 39.5665 -0.461496 29.2424 4.0742 20.3682C8.42056 11.7284 15.9854 5.1406 25.1406 2.02246C27.7666 1.12269 30.5309 0.846385 32.9472 0H202.891ZM118.79 150.087C115.991 147.898 113.215 147.614 109.803 147.877C104.827 149.021 103.277 151.43 99.79 154.918L90.9179 163.801L60.1582 194.558C57.853 196.863 51.5333 203.844 49.0332 205.046C47.2136 205.919 44.8307 205.664 43.1435 204.605C41.7964 203.759 40.7851 202.13 40.4883 200.582C40.1697 198.922 40.5481 197.104 41.5488 195.736C43.2887 193.358 48.4578 189.471 49.4287 187.37C49.883 186.388 49.8518 152.87 49.6347 149.264C45.3215 153.473 41.0438 157.721 36.8027 162.003C27.0835 171.721 18.6593 178.167 18.6484 193.373C18.6405 204.363 18.6328 215.471 18.6357 226.474L18.6347 305.547L77.5556 305.572C84.6582 305.572 92.2723 305.712 99.332 305.56L99.3594 286.397C99.3597 283.393 99.1692 277.421 99.7197 274.839C99.913 273.932 104.38 267.619 105.27 266.183C106.75 263.801 108.108 261.344 109.34 258.824C114.653 247.874 117.588 235.923 117.95 223.757C118.206 216.392 117.852 208.722 118.04 201.339C113.075 201.267 108.11 201.263 103.145 201.323C101.608 202.811 99.2255 205.02 97.8691 206.658C98.6945 211.443 99.2516 215.151 99.3437 220.047C99.5026 234.531 95.1249 248.702 86.8242 260.572C84.46 263.942 80.9153 266.195 77.0322 263.388C75.7281 262.45 74.8623 261.021 74.6338 259.431C74.4692 258.206 74.6421 256.958 75.1328 255.824C75.8696 254.157 78.1624 251.249 79.2314 249.436C82.647 243.531 84.9772 237.06 86.1113 230.334C87.1597 224.226 87.1689 217.985 86.1377 211.874C84.6815 203.336 82.8324 203.886 89.5976 197.188L94.9248 191.881L113.74 173.071C118.183 168.627 123.8 164.677 123.025 157.733C122.698 154.719 121.172 151.963 118.79 150.087ZM62.1435 43.4502C61.9702 53.2847 62.1125 63.5156 62.1142 73.374L62.1152 128.398V159.335L62.1142 169.051C62.1149 170.872 62.0575 173.307 62.2109 175.098C63.8517 173.124 66.3556 170.754 68.2109 168.898L78.2011 158.902L89.2812 147.825C95.7635 141.349 99.7791 136.263 109.603 135.343C115.866 134.766 122.104 136.693 126.951 140.701C131.839 144.737 134.895 150.572 135.428 156.889C136.015 163.25 133.994 169.578 129.828 174.419C127.55 177.105 124.056 180.308 121.544 182.891C120.371 184.096 117.125 187.466 115.988 188.41L116.094 188.691C117.001 188.935 121.138 188.819 122.267 188.81L131.08 188.805L173.876 188.799L173.907 87.6523L173.905 59.043C173.905 54.0357 173.794 48.5478 173.938 43.5811C164.113 43.4561 154.186 43.5288 144.35 43.5283L93.5976 43.5293L71.9053 43.5244C69.8595 43.5247 63.9061 43.7047 62.1435 43.4502ZM154.604 140.429C157.992 140.075 161.03 142.523 161.406 145.909C161.78 149.295 159.352 152.349 155.969 152.745C152.554 153.145 149.468 150.69 149.089 147.273C148.712 143.857 151.185 140.786 154.604 140.429ZM154.757 103.146C164.269 102.988 160.841 114.685 161.504 120.612C161.915 124.294 159.495 127.297 155.885 127.934C148.733 128.138 148.79 121.852 149.071 116.665C149.369 111.169 147.261 104.406 154.757 103.146ZM80.2265 65.8926C87.6239 65.5424 95.3151 66.0093 102.711 65.8242C111.842 65.5958 111.803 69.3605 111.81 76.8105L111.814 87.0586L111.812 101.348C111.81 104.011 111.85 106.638 111.72 109.3C111.548 112.804 109.612 114.965 106.097 115.494C99.6278 115.78 92.9865 115.466 86.4931 115.594C83.7078 115.649 79.3486 115.935 77.0556 114.334C75.7671 113.451 74.9024 112.073 74.6679 110.529C74.4677 109.29 74.5273 105.935 74.5263 104.544L74.5224 93.8711L74.5234 79.5938C74.5248 76.7821 74.4046 73.8142 74.6943 71.0303C75.0213 67.8904 77.3603 66.3506 80.2265 65.8926ZM86.9873 78.2314C86.8373 86.4794 87.044 94.8192 86.9551 103.07C88.8444 103.08 97.8524 103.379 99.2314 103.002L99.331 102.899C99.4897 94.7648 99.2147 86.454 99.4072 78.3613C96.9801 78.3256 94.5523 78.3171 92.125 78.3359C90.6901 78.3445 88.316 78.4448 86.9873 78.2314ZM154.756 65.8809C164.268 65.7229 160.847 77.4173 161.504 83.3486C161.911 87.0322 159.496 90.0315 155.885 90.668C152.693 90.7432 149.595 88.9682 149.231 85.6543C148.832 82.0032 149.118 77.9673 149.047 74.2842C148.96 69.8155 149.812 66.7177 154.756 65.8809ZM74.9726 12.4717C62.7505 12.4715 49.7516 12.2472 37.5781 12.4844C37.4479 12.4874 37.3177 12.4916 37.1875 12.4961C29.7446 12.8812 23.8873 15.0449 18.7783 20.6973C14.3747 25.6054 12.1076 32.0658 12.4785 38.6494C12.8381 45.2531 15.8343 51.4359 20.7939 55.8105C26.2077 60.6402 32.4166 62.2515 39.4951 62.1113C42.8605 62.0447 46.2847 62.1395 49.6582 62.0957C49.694 56.0708 49.5612 49.5586 49.7197 43.5811C46.4633 43.5775 41.4054 44.1173 38.9951 41.6494C35.396 37.9639 37.7921 31.18 43.1758 31.1006C46.0496 31.0261 48.8462 31.0433 51.6865 31.043H67.124L115.009 31.0479L166.707 31.0488L183.073 31.0459C186.211 31.0428 189.405 30.9995 192.537 31.1035C194.478 31.1681 195.624 31.7544 197.029 32.9961C198.253 34.5023 198.874 35.894 198.656 37.9258C198.495 39.5715 197.675 41.0818 196.382 42.1133C194.259 43.8033 188.971 43.8399 186.339 43.458L186.329 62.0781C197.788 62.1342 207.401 63.5708 216.207 54.7803C220.952 50.1329 223.603 43.754 223.547 37.1123C223.496 30.4866 220.808 24.1541 216.078 19.5137C209.094 12.751 202.589 12.4582 193.488 12.4648L183.719 12.4697L148.466 12.4727L74.9726 12.4717Z" fill="currentColor"/>
</svg>
