<svg width="272" height="229" viewBox="0 0 272 229" fill="none" xmlns="http://www.w3.org/2000/svg">
<path d="M253.333 0C263.631 0 272 8.33849 272 18.6504V210.35C272 220.662 263.631 229 253.333 229H18.667C8.36948 229 0 220.662 0 210.35V18.6504C0 8.33849 8.36948 0 18.667 0H253.333ZM16 210.35C16 211.801 17.1824 213 18.667 213H253.333C254.818 213 256 211.801 256 210.35V58H16V210.35ZM189 85C193.418 85 197 88.5817 197 93C197 109.178 190.574 124.694 179.134 136.134C167.694 147.574 152.178 154 136 154C119.822 154 104.306 147.574 92.8662 136.134C81.4265 124.694 75 109.178 75 93C75 88.5817 78.5817 85 83 85C87.4183 85 91 88.5817 91 93C91 104.935 95.7415 116.38 104.181 124.819C112.62 133.258 124.065 138 136 138C147.935 138 159.38 133.258 167.819 124.819C176.258 116.38 181 104.935 181 93C181 88.5817 184.582 85 189 85ZM18.667 16C17.1824 16 16 17.1986 16 18.6504V42H256V18.6504C256 17.1986 254.818 16 253.333 16H18.667Z" fill="currentColor"/>
</svg>
