<svg width="280" height="280" viewBox="0 0 280 280" fill="none" xmlns="http://www.w3.org/2000/svg">
<path d="M98.4072 178.285C111.584 177.984 125.788 182.76 135.846 191.254C143.796 197.968 142.57 198.008 153.12 197.967L166.241 197.957C175.654 197.958 182.825 197.67 190.322 204.823C192.134 206.539 193.664 208.529 194.856 210.719C195.328 211.596 196.006 213.13 196.543 213.867C197.623 212.51 199.51 210.718 200.794 209.435L207.88 202.355L216.698 193.537C219.196 191.041 221.724 188.338 224.586 186.264C233.551 179.766 245.808 180.202 254.351 187.09C259.471 191.159 262.722 197.13 263.36 203.64C264.74 217.161 256.309 223.643 247.776 232.173L230.53 249.41L214.576 265.372C209.103 270.848 203.447 277.661 195.497 279.23C194.836 279.36 192.709 279.753 192.178 280H22.9785C19.1745 278.253 16.5984 276.786 16.4521 271.975C16.3358 268.149 16.4089 264.299 16.4092 260.468L16.4111 239.252L16.4082 218.054C16.4041 213.629 16.2416 209.032 16.6211 204.676C16.8453 202.101 19.4763 198.977 21.9521 198.421C25.2805 197.673 29.5474 197.958 32.9756 197.962L47.7646 197.969C50.3846 197.969 53.5969 198.049 56.1641 197.912C58.8428 195.111 61.0465 192.804 64.1094 190.379C73.9283 182.736 85.9659 178.492 98.4072 178.285ZM126.117 204.488C118.303 197.832 108.272 194.353 98.0137 194.747C86.8135 195.284 76.698 199.777 69.1318 208.118C68.2935 209.034 67.5119 210.001 66.79 211.012C66.6588 212.923 66.7198 215.277 66.7217 217.22L66.7256 227.488C66.7282 239.459 66.8448 251.613 66.7236 263.566L151.534 263.585L177.637 263.592L185.257 263.594C189.745 263.592 192.489 264.113 195.887 260.75L229.843 226.801L240.042 216.604C241.182 215.463 242.338 214.294 243.483 213.163C245.606 211.067 247.106 209.41 247.142 206.274C247.172 204.062 246.295 201.933 244.715 200.386C243.018 198.701 241.128 198.082 238.782 198.069C234.824 198.049 232.543 200.975 229.945 203.615L204.605 228.946L195.585 237.966C185.533 248.032 188.253 247.241 174.11 247.238L150.94 247.225C146.895 247.222 141.594 246.963 137.686 247.596C133.337 248.3 132.124 254.311 126.547 253.985C121.576 253.695 118.229 250.271 118.367 245.21C118.623 241.766 121.592 238.49 124.14 236.403C127.251 233.869 130.929 232.121 134.861 231.314C138.491 230.552 144.31 230.77 148.198 230.772L166.795 230.781C169.425 230.783 173.833 231.042 176.195 230.178C179.232 229.068 181.125 226.491 181.463 223.259C181.663 221.14 181.009 219.029 179.645 217.394C178.055 215.467 176.163 214.648 173.71 214.506C171.126 214.355 168.495 214.41 165.904 214.413L152.448 214.424C138.321 214.429 136.726 213.404 126.117 204.488ZM32.8438 214.349C32.5799 230.65 32.9829 247.235 32.8174 263.566C34.2988 263.573 49.9379 263.739 50.2764 263.416C50.5115 251.282 50.183 238.914 50.3164 226.759C50.3612 222.685 50.246 218.53 50.3438 214.464C46.5406 214.417 42.737 214.407 38.9336 214.432C37.5045 214.436 34.0899 214.548 32.8438 214.349ZM142.83 0.0400391C151.137 1.19743 158.149 5.58456 162.184 13.0459C165.223 18.7413 165.914 25.3993 164.111 31.5977C163.811 32.6061 163.326 33.9567 162.876 34.9121C189.625 40.0313 213.939 53.8342 232.043 74.1797C239.598 82.6813 246.278 92.7124 251.188 102.98C256.577 114.116 260.273 125.995 262.153 138.223C262.628 141.358 262.999 145.46 263.278 148.636C265.09 148.763 267.053 148.761 268.873 148.75C272.506 148.725 275.287 148.593 277.916 151.583C279.278 153.131 279.238 153.918 280.001 155.471V158.438C278.369 162.418 276.486 165.066 271.664 165.159C266.592 165.259 261.509 165.206 256.436 165.206L228.971 165.202L146.329 165.2L54.8047 165.199L24.998 165.203C19.7369 165.207 14.4656 165.219 9.21484 165.198C5.20718 165.183 2.412 163.895 0.676758 160.148C0.475645 159.714 0.23558 158.982 0 158.615V155.226C0.791326 154.181 0.742397 152.67 2.47266 151.073C5.23632 148.521 7.85922 148.726 11.3174 148.731L16.6221 148.749C17.3807 141.912 18.21 134.647 19.8926 127.976C23.1982 114.869 28.9592 100.855 36.5459 89.5977C40.208 84.0925 44.245 78.846 48.6279 73.8955C66.9322 53.6944 91.3234 40.0118 118.104 34.9219C117.795 34.1342 117.497 33.3092 117.229 32.5059C113.575 21.5883 118.198 9.016 128.275 3.31543C129.583 2.57594 130.737 1.96875 132.146 1.50977C133.382 1.10651 134.638 0.770343 135.91 0.503906C136.704 0.344299 137.497 0.271459 138.266 0H142.705C142.747 0.0131783 142.789 0.0268607 142.83 0.0400391ZM209.523 74.9609C190.127 58.1606 163.784 48.2521 138.02 49.2764C131.599 49.6661 126.377 50.0157 120.021 51.2861C97.0903 56.0547 76.2897 68.0414 60.667 85.4902C49.6068 97.8939 41.4578 112.613 36.8164 128.57C36.0433 131.222 35.5224 134.26 34.8408 136.951C33.907 140.637 33.8874 145.11 33.0869 148.703C45.4611 148.951 58.4969 148.749 70.9121 148.749L141.88 148.745L246.913 148.758C246.216 146.244 246.277 142.55 245.771 139.862C245.073 136.149 244.371 132.296 243.393 128.646C237.723 107.768 225.926 89.0683 209.523 74.9609ZM148.612 23.5566C148.027 19.0882 143.927 15.942 139.46 16.5342C135.004 17.125 131.867 21.2126 132.45 25.6699C133.033 30.1272 137.116 33.2705 141.574 32.6953C146.043 32.1186 149.196 28.0247 148.612 23.5566Z" fill="currentColor"/>
</svg>
